<?xml version="1.0" encoding="UTF-8"?>
<!DOCTYPE svg PUBLIC "-//W3C//DTD SVG 1.1//EN"
    "http://www.w3.org/Graphics/SVG/1.1/DTD/svg11.dtd"><svg stroke="rgb(0,0,0)" xmlns="http://www.w3.org/2000/svg" font-size="1" width="700.0000" stroke-opacity="1" xmlns:xlink="http://www.w3.org/1999/xlink" viewBox="0.0 0.0 700.0 200.0" height="200.0000" version="1.1"><defs></defs><g fill="rgb(144,238,144)" stroke="rgb(255,0,0)" stroke-linecap="butt" stroke-width="1.4363696929192158" stroke-miterlimit="10.0" fill-opacity="1.0" stroke-opacity="1.0" stroke-linejoin="miter"><path d="M 700.0000,173.6842 h 0.0000 c 0.0000,-10.1737 -8.2474,-18.4211 -18.4211 -18.4211h -36.8421 c -10.1737,-0.0000 -18.4211,8.2474 -18.4211 18.4211h 0.0000 c -0.0000,10.1737 8.2474,18.4211 18.4211 18.4211h 36.8421 c 10.1737,0.0000 18.4211,-8.2474 18.4211 -18.4211Z"/></g><g fill="rgb(0,0,0)" stroke="rgb(255,0,0)" stroke-linecap="butt" stroke-width="1.4363696929192158" font-size="18.42105263157895px" stroke-miterlimit="10.0" fill-opacity="1.0" stroke-opacity="1.0" stroke-linejoin="miter"><text dominant-baseline="middle" stroke="none" transform="matrix(1.0000,0.0000,0.0000,1.0000,663.1579,173.6842)" text-anchor="middle">7, 10</text></g><g fill="rgb(144,238,144)" stroke="rgb(255,0,0)" stroke-linecap="butt" stroke-width="1.4363696929192158" stroke-miterlimit="10.0" fill-opacity="1.0" stroke-opacity="1.0" stroke-linejoin="miter"><path d="M 589.4737,173.6842 h 0.0000 c 0.0000,-10.1737 -8.2474,-18.4211 -18.4211 -18.4211h -36.8421 c -10.1737,-0.0000 -18.4211,8.2474 -18.4211 18.4211h 0.0000 c -0.0000,10.1737 8.2474,18.4211 18.4211 18.4211h 36.8421 c 10.1737,0.0000 18.4211,-8.2474 18.4211 -18.4211Z"/></g><g fill="rgb(0,0,0)" stroke="rgb(255,0,0)" stroke-linecap="butt" stroke-width="1.4363696929192158" font-size="18.42105263157895px" stroke-miterlimit="10.0" fill-opacity="1.0" stroke-opacity="1.0" stroke-linejoin="miter"><text dominant-baseline="middle" stroke="none" transform="matrix(1.0000,0.0000,0.0000,1.0000,552.6316,173.6842)" text-anchor="middle">4, 9</text></g><g fill="rgb(144,238,144)" stroke="rgb(255,0,0)" stroke-linecap="butt" stroke-width="1.4363696929192158" stroke-miterlimit="10.0" fill-opacity="1.0" stroke-opacity="1.0" stroke-linejoin="miter"><path d="M 478.9474,173.6842 h 0.0000 c 0.0000,-10.1737 -8.2474,-18.4211 -18.4211 -18.4211h -36.8421 c -10.1737,-0.0000 -18.4211,8.2474 -18.4211 18.4211h 0.0000 c -0.0000,10.1737 8.2474,18.4211 18.4211 18.4211h 36.8421 c 10.1737,0.0000 18.4211,-8.2474 18.4211 -18.4211Z"/></g><g fill="rgb(0,0,0)" stroke="rgb(255,0,0)" stroke-linecap="butt" stroke-width="1.4363696929192158" font-size="18.42105263157895px" stroke-miterlimit="10.0" fill-opacity="1.0" stroke-opacity="1.0" stroke-linejoin="miter"><text dominant-baseline="middle" stroke="none" transform="matrix(1.0000,0.0000,0.0000,1.0000,442.1053,173.6842)" text-anchor="middle">3, 6</text></g><g fill="rgb(255,165,0)" stroke="rgb(255,0,0)" stroke-linecap="butt" stroke-width="1.4363696929192158" stroke-miterlimit="10.0" fill-opacity="1.0" stroke-opacity="1.0" stroke-linejoin="miter"><path d="M 700.0000,100.0000 h 0.0000 c 0.0000,-10.1737 -8.2474,-18.4211 -18.4211 -18.4211h -36.8421 c -10.1737,-0.0000 -18.4211,8.2474 -18.4211 18.4211h 0.0000 c -0.0000,10.1737 8.2474,18.4211 18.4211 18.4211h 36.8421 c 10.1737,0.0000 18.4211,-8.2474 18.4211 -18.4211Z"/></g><g fill="rgb(0,0,0)" stroke="rgb(255,0,0)" stroke-linecap="butt" stroke-width="1.4363696929192158" font-size="18.42105263157895px" stroke-miterlimit="10.0" fill-opacity="1.0" stroke-opacity="1.0" stroke-linejoin="miter"><text dominant-baseline="middle" stroke="none" transform="matrix(1.0000,0.0000,0.0000,1.0000,663.1579,100.0000)" text-anchor="middle">8</text></g><g fill="rgb(255,165,0)" stroke="rgb(255,0,0)" stroke-linecap="butt" stroke-width="1.4363696929192158" stroke-miterlimit="10.0" fill-opacity="1.0" stroke-opacity="1.0" stroke-linejoin="miter"><path d="M 589.4737,100.0000 h 0.0000 c 0.0000,-10.1737 -8.2474,-18.4211 -18.4211 -18.4211h -36.8421 c -10.1737,-0.0000 -18.4211,8.2474 -18.4211 18.4211h 0.0000 c -0.0000,10.1737 8.2474,18.4211 18.4211 18.4211h 36.8421 c 10.1737,0.0000 18.4211,-8.2474 18.4211 -18.4211Z"/></g><g fill="rgb(0,0,0)" stroke="rgb(255,0,0)" stroke-linecap="butt" stroke-width="1.4363696929192158" font-size="18.42105263157895px" stroke-miterlimit="10.0" fill-opacity="1.0" stroke-opacity="1.0" stroke-linejoin="miter"><text dominant-baseline="middle" stroke="none" transform="matrix(1.0000,0.0000,0.0000,1.0000,552.6316,100.0000)" text-anchor="middle">5</text></g><g fill="rgb(255,165,0)" stroke="rgb(255,0,0)" stroke-linecap="butt" stroke-width="1.4363696929192158" stroke-miterlimit="10.0" fill-opacity="1.0" stroke-opacity="1.0" stroke-linejoin="miter"><path d="M 478.9474,100.0000 h 0.0000 c 0.0000,-10.1737 -8.2474,-18.4211 -18.4211 -18.4211h -36.8421 c -10.1737,-0.0000 -18.4211,8.2474 -18.4211 18.4211h 0.0000 c -0.0000,10.1737 8.2474,18.4211 18.4211 18.4211h 36.8421 c 10.1737,0.0000 18.4211,-8.2474 18.4211 -18.4211Z"/></g><g fill="rgb(0,0,0)" stroke="rgb(255,0,0)" stroke-linecap="butt" stroke-width="1.4363696929192158" font-size="18.42105263157895px" stroke-miterlimit="10.0" fill-opacity="1.0" stroke-opacity="1.0" stroke-linejoin="miter"><text dominant-baseline="middle" stroke="none" transform="matrix(1.0000,0.0000,0.0000,1.0000,442.1053,100.0000)" text-anchor="middle">2</text></g><g fill="rgb(173,216,230)" stroke="rgb(255,0,0)" stroke-linecap="butt" stroke-width="1.4363696929192158" stroke-miterlimit="10.0" fill-opacity="1.0" stroke-opacity="1.0" stroke-linejoin="miter"><path d="M 589.4737,26.3158 h 0.0000 c 0.0000,-10.1737 -8.2474,-18.4211 -18.4211 -18.4211h -36.8421 c -10.1737,-0.0000 -18.4211,8.2474 -18.4211 18.4211h 0.0000 c -0.0000,10.1737 8.2474,18.4211 18.4211 18.4211h 36.8421 c 10.1737,0.0000 18.4211,-8.2474 18.4211 -18.4211Z"/></g><g fill="rgb(0,0,0)" stroke="rgb(255,0,0)" stroke-linecap="butt" stroke-width="1.4363696929192158" font-size="18.42105263157895px" stroke-miterlimit="10.0" fill-opacity="1.0" stroke-opacity="1.0" stroke-linejoin="miter"><text dominant-baseline="middle" stroke="none" transform="matrix(1.0000,0.0000,0.0000,1.0000,552.6316,26.3158)" text-anchor="middle">1</text></g><g fill="rgb(0,0,0)" stroke="rgb(255,0,0)" stroke-linecap="butt" stroke-width="1.4363696929192158" stroke-miterlimit="10.0" fill-opacity="0.0" stroke-opacity="1.0" stroke-linejoin="miter"><path d="M 663.1579,118.4211 l 0.0000,24.2739 "/></g><g fill="rgb(255,0,0)" stroke="rgb(255,0,0)" stroke-linecap="butt" stroke-width="0.0" stroke-miterlimit="10.0" fill-opacity="1.0" stroke-opacity="1.0" stroke-linejoin="miter"></g><g fill="rgb(255,0,0)" stroke="rgb(255,0,0)" stroke-linecap="butt" stroke-width="0.0" stroke-miterlimit="10.0" fill-opacity="1.0" stroke-opacity="1.0" stroke-linejoin="miter"></g><g fill="rgb(255,0,0)" stroke="rgb(255,0,0)" stroke-linecap="butt" stroke-width="0.0" stroke-miterlimit="10.0" fill-opacity="1.0" stroke-opacity="1.0" stroke-linejoin="miter"><path d="M 663.1579,155.2632 l 4.7770,-14.7021 l -4.7770,2.5114 l -4.7770,-2.5114 Z"/></g><g fill="rgb(255,0,0)" stroke="rgb(255,0,0)" stroke-linecap="butt" stroke-width="0.0" stroke-miterlimit="10.0" fill-opacity="1.0" stroke-opacity="1.0" stroke-linejoin="miter"><path d="M 663.1579,143.0725 l -0.0000,-0.3776 l 0.7182,-0.0000 l -0.7182,0.3776 l -0.0000,-0.3776 l -0.7182,0.0000 Z"/></g><g fill="rgb(0,0,0)" stroke="rgb(255,0,0)" stroke-linecap="butt" stroke-width="1.4363696929192158" stroke-miterlimit="10.0" fill-opacity="0.0" stroke-opacity="1.0" stroke-linejoin="miter"><path d="M 637.6470,117.0073 l -49.0472,32.6981 "/></g><g fill="rgb(255,0,0)" stroke="rgb(255,0,0)" stroke-linecap="butt" stroke-width="0.0" stroke-miterlimit="10.0" fill-opacity="1.0" stroke-opacity="1.0" stroke-linejoin="miter"></g><g fill="rgb(255,0,0)" stroke="rgb(255,0,0)" stroke-linecap="butt" stroke-width="0.0" stroke-miterlimit="10.0" fill-opacity="1.0" stroke-opacity="1.0" stroke-linejoin="miter"></g><g fill="rgb(255,0,0)" stroke="rgb(255,0,0)" stroke-linecap="butt" stroke-width="0.0" stroke-miterlimit="10.0" fill-opacity="1.0" stroke-opacity="1.0" stroke-linejoin="miter"><path d="M 578.1425,156.6770 l 14.8827,-4.1805 l -4.7394,-2.5816 l -0.5602,-5.3678 Z"/></g><g fill="rgb(255,0,0)" stroke="rgb(255,0,0)" stroke-linecap="butt" stroke-width="0.0" stroke-miterlimit="10.0" fill-opacity="1.0" stroke-opacity="1.0" stroke-linejoin="miter"><path d="M 588.2857,149.9148 l 0.3142,-0.2094 l 0.3984,0.5976 l -0.7125,-0.3881 l 0.3142,-0.2094 l -0.3984,-0.5976 Z"/></g><g fill="rgb(0,0,0)" stroke="rgb(255,0,0)" stroke-linecap="butt" stroke-width="1.4363696929192158" stroke-miterlimit="10.0" fill-opacity="0.0" stroke-opacity="1.0" stroke-linejoin="miter"><path d="M 578.1425,117.0073 l 49.0472,32.6981 "/></g><g fill="rgb(255,0,0)" stroke="rgb(255,0,0)" stroke-linecap="butt" stroke-width="0.0" stroke-miterlimit="10.0" fill-opacity="1.0" stroke-opacity="1.0" stroke-linejoin="miter"></g><g fill="rgb(255,0,0)" stroke="rgb(255,0,0)" stroke-linecap="butt" stroke-width="0.0" stroke-miterlimit="10.0" fill-opacity="1.0" stroke-opacity="1.0" stroke-linejoin="miter"></g><g fill="rgb(255,0,0)" stroke="rgb(255,0,0)" stroke-linecap="butt" stroke-width="0.0" stroke-miterlimit="10.0" fill-opacity="1.0" stroke-opacity="1.0" stroke-linejoin="miter"><path d="M 637.6470,156.6770 l -9.5831,-12.1299 l -0.5602,5.3678 l -4.7394,2.5816 Z"/></g><g fill="rgb(255,0,0)" stroke="rgb(255,0,0)" stroke-linecap="butt" stroke-width="0.0" stroke-miterlimit="10.0" fill-opacity="1.0" stroke-opacity="1.0" stroke-linejoin="miter"><path d="M 627.5038,149.9148 l -0.3142,-0.2094 l 0.3984,-0.5976 l -0.0842,0.8070 l -0.3142,-0.2094 l -0.3984,0.5976 Z"/></g><g fill="rgb(0,0,0)" stroke="rgb(255,0,0)" stroke-linecap="butt" stroke-width="1.4363696929192158" stroke-miterlimit="10.0" fill-opacity="0.0" stroke-opacity="1.0" stroke-linejoin="miter"><path d="M 527.1207,117.0073 l -49.0472,32.6981 "/></g><g fill="rgb(255,0,0)" stroke="rgb(255,0,0)" stroke-linecap="butt" stroke-width="0.0" stroke-miterlimit="10.0" fill-opacity="1.0" stroke-opacity="1.0" stroke-linejoin="miter"></g><g fill="rgb(255,0,0)" stroke="rgb(255,0,0)" stroke-linecap="butt" stroke-width="0.0" stroke-miterlimit="10.0" fill-opacity="1.0" stroke-opacity="1.0" stroke-linejoin="miter"></g><g fill="rgb(255,0,0)" stroke="rgb(255,0,0)" stroke-linecap="butt" stroke-width="0.0" stroke-miterlimit="10.0" fill-opacity="1.0" stroke-opacity="1.0" stroke-linejoin="miter"><path d="M 467.6161,156.6770 l 14.8827,-4.1805 l -4.7394,-2.5816 l -0.5602,-5.3678 Z"/></g><g fill="rgb(255,0,0)" stroke="rgb(255,0,0)" stroke-linecap="butt" stroke-width="0.0" stroke-miterlimit="10.0" fill-opacity="1.0" stroke-opacity="1.0" stroke-linejoin="miter"><path d="M 477.7594,149.9148 l 0.3142,-0.2094 l 0.3984,0.5976 l -0.7125,-0.3881 l 0.3142,-0.2094 l -0.3984,-0.5976 Z"/></g><g fill="rgb(0,0,0)" stroke="rgb(255,0,0)" stroke-linecap="butt" stroke-width="1.4363696929192158" stroke-miterlimit="10.0" fill-opacity="0.0" stroke-opacity="1.0" stroke-linejoin="miter"><path d="M 467.6161,117.0073 l 49.0472,32.6981 "/></g><g fill="rgb(255,0,0)" stroke="rgb(255,0,0)" stroke-linecap="butt" stroke-width="0.0" stroke-miterlimit="10.0" fill-opacity="1.0" stroke-opacity="1.0" stroke-linejoin="miter"></g><g fill="rgb(255,0,0)" stroke="rgb(255,0,0)" stroke-linecap="butt" stroke-width="0.0" stroke-miterlimit="10.0" fill-opacity="1.0" stroke-opacity="1.0" stroke-linejoin="miter"></g><g fill="rgb(255,0,0)" stroke="rgb(255,0,0)" stroke-linecap="butt" stroke-width="0.0" stroke-miterlimit="10.0" fill-opacity="1.0" stroke-opacity="1.0" stroke-linejoin="miter"><path d="M 527.1207,156.6770 l -9.5831,-12.1299 l -0.5602,5.3678 l -4.7394,2.5816 Z"/></g><g fill="rgb(255,0,0)" stroke="rgb(255,0,0)" stroke-linecap="butt" stroke-width="0.0" stroke-miterlimit="10.0" fill-opacity="1.0" stroke-opacity="1.0" stroke-linejoin="miter"><path d="M 516.9775,149.9148 l -0.3142,-0.2094 l 0.3984,-0.5976 l -0.0842,0.8070 l -0.3142,-0.2094 l -0.3984,0.5976 Z"/></g><g fill="rgb(0,0,0)" stroke="rgb(255,0,0)" stroke-linecap="butt" stroke-width="1.4363696929192158" stroke-miterlimit="10.0" fill-opacity="0.0" stroke-opacity="1.0" stroke-linejoin="miter"><path d="M 442.1053,118.4211 l 0.0000,24.2739 "/></g><g fill="rgb(255,0,0)" stroke="rgb(255,0,0)" stroke-linecap="butt" stroke-width="0.0" stroke-miterlimit="10.0" fill-opacity="1.0" stroke-opacity="1.0" stroke-linejoin="miter"></g><g fill="rgb(255,0,0)" stroke="rgb(255,0,0)" stroke-linecap="butt" stroke-width="0.0" stroke-miterlimit="10.0" fill-opacity="1.0" stroke-opacity="1.0" stroke-linejoin="miter"></g><g fill="rgb(255,0,0)" stroke="rgb(255,0,0)" stroke-linecap="butt" stroke-width="0.0" stroke-miterlimit="10.0" fill-opacity="1.0" stroke-opacity="1.0" stroke-linejoin="miter"><path d="M 442.1053,155.2632 l 4.7770,-14.7021 l -4.7770,2.5114 l -4.7770,-2.5114 Z"/></g><g fill="rgb(255,0,0)" stroke="rgb(255,0,0)" stroke-linecap="butt" stroke-width="0.0" stroke-miterlimit="10.0" fill-opacity="1.0" stroke-opacity="1.0" stroke-linejoin="miter"><path d="M 442.1053,143.0725 l -0.0000,-0.3776 l 0.7182,-0.0000 l -0.7182,0.3776 l -0.0000,-0.3776 l -0.7182,0.0000 Z"/></g><g fill="rgb(0,0,0)" stroke="rgb(255,0,0)" stroke-linecap="butt" stroke-width="1.4363696929192158" stroke-miterlimit="10.0" fill-opacity="0.0" stroke-opacity="1.0" stroke-linejoin="miter"><path d="M 578.1425,43.3230 l 49.0472,32.6981 "/></g><g fill="rgb(255,0,0)" stroke="rgb(255,0,0)" stroke-linecap="butt" stroke-width="0.0" stroke-miterlimit="10.0" fill-opacity="1.0" stroke-opacity="1.0" stroke-linejoin="miter"></g><g fill="rgb(255,0,0)" stroke="rgb(255,0,0)" stroke-linecap="butt" stroke-width="0.0" stroke-miterlimit="10.0" fill-opacity="1.0" stroke-opacity="1.0" stroke-linejoin="miter"></g><g fill="rgb(255,0,0)" stroke="rgb(255,0,0)" stroke-linecap="butt" stroke-width="0.0" stroke-miterlimit="10.0" fill-opacity="1.0" stroke-opacity="1.0" stroke-linejoin="miter"><path d="M 637.6470,82.9927 l -9.5831,-12.1299 l -0.5602,5.3678 l -4.7394,2.5816 Z"/></g><g fill="rgb(255,0,0)" stroke="rgb(255,0,0)" stroke-linecap="butt" stroke-width="0.0" stroke-miterlimit="10.0" fill-opacity="1.0" stroke-opacity="1.0" stroke-linejoin="miter"><path d="M 627.5038,76.2306 l -0.3142,-0.2094 l 0.3984,-0.5976 l -0.0842,0.8070 l -0.3142,-0.2094 l -0.3984,0.5976 Z"/></g><g fill="rgb(0,0,0)" stroke="rgb(255,0,0)" stroke-linecap="butt" stroke-width="1.4363696929192158" stroke-miterlimit="10.0" fill-opacity="0.0" stroke-opacity="1.0" stroke-linejoin="miter"><path d="M 552.6316,44.7368 l 0.0000,24.2739 "/></g><g fill="rgb(255,0,0)" stroke="rgb(255,0,0)" stroke-linecap="butt" stroke-width="0.0" stroke-miterlimit="10.0" fill-opacity="1.0" stroke-opacity="1.0" stroke-linejoin="miter"></g><g fill="rgb(255,0,0)" stroke="rgb(255,0,0)" stroke-linecap="butt" stroke-width="0.0" stroke-miterlimit="10.0" fill-opacity="1.0" stroke-opacity="1.0" stroke-linejoin="miter"></g><g fill="rgb(255,0,0)" stroke="rgb(255,0,0)" stroke-linecap="butt" stroke-width="0.0" stroke-miterlimit="10.0" fill-opacity="1.0" stroke-opacity="1.0" stroke-linejoin="miter"><path d="M 552.6316,81.5789 l 4.7770,-14.7021 l -4.7770,2.5114 l -4.7770,-2.5114 Z"/></g><g fill="rgb(255,0,0)" stroke="rgb(255,0,0)" stroke-linecap="butt" stroke-width="0.0" stroke-miterlimit="10.0" fill-opacity="1.0" stroke-opacity="1.0" stroke-linejoin="miter"><path d="M 552.6316,69.3883 l -0.0000,-0.3776 l 0.7182,-0.0000 l -0.7182,0.3776 l -0.0000,-0.3776 l -0.7182,0.0000 Z"/></g><g fill="rgb(0,0,0)" stroke="rgb(255,0,0)" stroke-linecap="butt" stroke-width="1.4363696929192158" stroke-miterlimit="10.0" fill-opacity="0.0" stroke-opacity="1.0" stroke-linejoin="miter"><path d="M 527.1207,43.3230 l -49.0472,32.6981 "/></g><g fill="rgb(255,0,0)" stroke="rgb(255,0,0)" stroke-linecap="butt" stroke-width="0.0" stroke-miterlimit="10.0" fill-opacity="1.0" stroke-opacity="1.0" stroke-linejoin="miter"></g><g fill="rgb(255,0,0)" stroke="rgb(255,0,0)" stroke-linecap="butt" stroke-width="0.0" stroke-miterlimit="10.0" fill-opacity="1.0" stroke-opacity="1.0" stroke-linejoin="miter"></g><g fill="rgb(255,0,0)" stroke="rgb(255,0,0)" stroke-linecap="butt" stroke-width="0.0" stroke-miterlimit="10.0" fill-opacity="1.0" stroke-opacity="1.0" stroke-linejoin="miter"><path d="M 467.6161,82.9927 l 14.8827,-4.1805 l -4.7394,-2.5816 l -0.5602,-5.3678 Z"/></g><g fill="rgb(255,0,0)" stroke="rgb(255,0,0)" stroke-linecap="butt" stroke-width="0.0" stroke-miterlimit="10.0" fill-opacity="1.0" stroke-opacity="1.0" stroke-linejoin="miter"><path d="M 477.7594,76.2306 l 0.3142,-0.2094 l 0.3984,0.5976 l -0.7125,-0.3881 l 0.3142,-0.2094 l -0.3984,-0.5976 Z"/></g><g fill="rgb(144,238,144)" stroke="rgb(255,0,0)" stroke-linecap="butt" stroke-width="1.4363696929192158" stroke-miterlimit="10.0" fill-opacity="1.0" stroke-opacity="1.0" stroke-linejoin="miter"><path d="M 294.7368,173.6842 h 0.0000 c 0.0000,-10.1737 -8.2474,-18.4211 -18.4211 -18.4211h -36.8421 c -10.1737,-0.0000 -18.4211,8.2474 -18.4211 18.4211h 0.0000 c -0.0000,10.1737 8.2474,18.4211 18.4211 18.4211h 36.8421 c 10.1737,0.0000 18.4211,-8.2474 18.4211 -18.4211Z"/></g><g fill="rgb(0,0,0)" stroke="rgb(255,0,0)" stroke-linecap="butt" stroke-width="1.4363696929192158" font-size="18.42105263157895px" stroke-miterlimit="10.0" fill-opacity="1.0" stroke-opacity="1.0" stroke-linejoin="miter"><text dominant-baseline="middle" stroke="none" transform="matrix(1.0000,0.0000,0.0000,1.0000,257.8947,173.6842)" text-anchor="middle">6</text></g><g fill="rgb(144,238,144)" stroke="rgb(255,0,0)" stroke-linecap="butt" stroke-width="1.4363696929192158" stroke-miterlimit="10.0" fill-opacity="1.0" stroke-opacity="1.0" stroke-linejoin="miter"><path d="M 184.2105,173.6842 h 0.0000 c 0.0000,-10.1737 -8.2474,-18.4211 -18.4211 -18.4211h -36.8421 c -10.1737,-0.0000 -18.4211,8.2474 -18.4211 18.4211h 0.0000 c -0.0000,10.1737 8.2474,18.4211 18.4211 18.4211h 36.8421 c 10.1737,0.0000 18.4211,-8.2474 18.4211 -18.4211Z"/></g><g fill="rgb(0,0,0)" stroke="rgb(255,0,0)" stroke-linecap="butt" stroke-width="1.4363696929192158" font-size="18.42105263157895px" stroke-miterlimit="10.0" fill-opacity="1.0" stroke-opacity="1.0" stroke-linejoin="miter"><text dominant-baseline="middle" stroke="none" transform="matrix(1.0000,0.0000,0.0000,1.0000,147.3684,173.6842)" text-anchor="middle">4</text></g><g fill="rgb(144,238,144)" stroke="rgb(255,0,0)" stroke-linecap="butt" stroke-width="1.4363696929192158" stroke-miterlimit="10.0" fill-opacity="1.0" stroke-opacity="1.0" stroke-linejoin="miter"><path d="M 73.6842,173.6842 h 0.0000 c 0.0000,-10.1737 -8.2474,-18.4211 -18.4211 -18.4211h -36.8421 c -10.1737,-0.0000 -18.4211,8.2474 -18.4211 18.4211h 0.0000 c -0.0000,10.1737 8.2474,18.4211 18.4211 18.4211h 36.8421 c 10.1737,0.0000 18.4211,-8.2474 18.4211 -18.4211Z"/></g><g fill="rgb(0,0,0)" stroke="rgb(255,0,0)" stroke-linecap="butt" stroke-width="1.4363696929192158" font-size="18.42105263157895px" stroke-miterlimit="10.0" fill-opacity="1.0" stroke-opacity="1.0" stroke-linejoin="miter"><text dominant-baseline="middle" stroke="none" transform="matrix(1.0000,0.0000,0.0000,1.0000,36.8421,173.6842)" text-anchor="middle">3</text></g><g fill="rgb(255,165,0)" stroke="rgb(255,0,0)" stroke-linecap="butt" stroke-width="1.4363696929192158" stroke-miterlimit="10.0" fill-opacity="1.0" stroke-opacity="1.0" stroke-linejoin="miter"><path d="M 294.7368,100.0000 h 0.0000 c 0.0000,-10.1737 -8.2474,-18.4211 -18.4211 -18.4211h -36.8421 c -10.1737,-0.0000 -18.4211,8.2474 -18.4211 18.4211h 0.0000 c -0.0000,10.1737 8.2474,18.4211 18.4211 18.4211h 36.8421 c 10.1737,0.0000 18.4211,-8.2474 18.4211 -18.4211Z"/></g><g fill="rgb(0,0,0)" stroke="rgb(255,0,0)" stroke-linecap="butt" stroke-width="1.4363696929192158" font-size="18.42105263157895px" stroke-miterlimit="10.0" fill-opacity="1.0" stroke-opacity="1.0" stroke-linejoin="miter"><text dominant-baseline="middle" stroke="none" transform="matrix(1.0000,0.0000,0.0000,1.0000,257.8947,100.0000)" text-anchor="middle">7</text></g><g fill="rgb(255,165,0)" stroke="rgb(255,0,0)" stroke-linecap="butt" stroke-width="1.4363696929192158" stroke-miterlimit="10.0" fill-opacity="1.0" stroke-opacity="1.0" stroke-linejoin="miter"><path d="M 184.2105,100.0000 h 0.0000 c 0.0000,-10.1737 -8.2474,-18.4211 -18.4211 -18.4211h -36.8421 c -10.1737,-0.0000 -18.4211,8.2474 -18.4211 18.4211h 0.0000 c -0.0000,10.1737 8.2474,18.4211 18.4211 18.4211h 36.8421 c 10.1737,0.0000 18.4211,-8.2474 18.4211 -18.4211Z"/></g><g fill="rgb(0,0,0)" stroke="rgb(255,0,0)" stroke-linecap="butt" stroke-width="1.4363696929192158" font-size="18.42105263157895px" stroke-miterlimit="10.0" fill-opacity="1.0" stroke-opacity="1.0" stroke-linejoin="miter"><text dominant-baseline="middle" stroke="none" transform="matrix(1.0000,0.0000,0.0000,1.0000,147.3684,100.0000)" text-anchor="middle">5</text></g><g fill="rgb(255,165,0)" stroke="rgb(255,0,0)" stroke-linecap="butt" stroke-width="1.4363696929192158" stroke-miterlimit="10.0" fill-opacity="1.0" stroke-opacity="1.0" stroke-linejoin="miter"><path d="M 73.6842,100.0000 h 0.0000 c 0.0000,-10.1737 -8.2474,-18.4211 -18.4211 -18.4211h -36.8421 c -10.1737,-0.0000 -18.4211,8.2474 -18.4211 18.4211h 0.0000 c -0.0000,10.1737 8.2474,18.4211 18.4211 18.4211h 36.8421 c 10.1737,0.0000 18.4211,-8.2474 18.4211 -18.4211Z"/></g><g fill="rgb(0,0,0)" stroke="rgb(255,0,0)" stroke-linecap="butt" stroke-width="1.4363696929192158" font-size="18.42105263157895px" stroke-miterlimit="10.0" fill-opacity="1.0" stroke-opacity="1.0" stroke-linejoin="miter"><text dominant-baseline="middle" stroke="none" transform="matrix(1.0000,0.0000,0.0000,1.0000,36.8421,100.0000)" text-anchor="middle">2</text></g><g fill="rgb(173,216,230)" stroke="rgb(255,0,0)" stroke-linecap="butt" stroke-width="1.4363696929192158" stroke-miterlimit="10.0" fill-opacity="1.0" stroke-opacity="1.0" stroke-linejoin="miter"><path d="M 184.2105,26.3158 h 0.0000 c 0.0000,-10.1737 -8.2474,-18.4211 -18.4211 -18.4211h -36.8421 c -10.1737,-0.0000 -18.4211,8.2474 -18.4211 18.4211h 0.0000 c -0.0000,10.1737 8.2474,18.4211 18.4211 18.4211h 36.8421 c 10.1737,0.0000 18.4211,-8.2474 18.4211 -18.4211Z"/></g><g fill="rgb(0,0,0)" stroke="rgb(255,0,0)" stroke-linecap="butt" stroke-width="1.4363696929192158" font-size="18.42105263157895px" stroke-miterlimit="10.0" fill-opacity="1.0" stroke-opacity="1.0" stroke-linejoin="miter"><text dominant-baseline="middle" stroke="none" transform="matrix(1.0000,0.0000,0.0000,1.0000,147.3684,26.3158)" text-anchor="middle">1</text></g><g fill="rgb(0,0,0)" stroke="rgb(255,0,0)" stroke-linecap="butt" stroke-width="1.4363696929192158" stroke-miterlimit="10.0" fill-opacity="0.0" stroke-opacity="1.0" stroke-linejoin="miter"><path d="M 257.8947,118.4211 l 0.0000,24.2739 "/></g><g fill="rgb(255,0,0)" stroke="rgb(255,0,0)" stroke-linecap="butt" stroke-width="0.0" stroke-miterlimit="10.0" fill-opacity="1.0" stroke-opacity="1.0" stroke-linejoin="miter"></g><g fill="rgb(255,0,0)" stroke="rgb(255,0,0)" stroke-linecap="butt" stroke-width="0.0" stroke-miterlimit="10.0" fill-opacity="1.0" stroke-opacity="1.0" stroke-linejoin="miter"></g><g fill="rgb(255,0,0)" stroke="rgb(255,0,0)" stroke-linecap="butt" stroke-width="0.0" stroke-miterlimit="10.0" fill-opacity="1.0" stroke-opacity="1.0" stroke-linejoin="miter"><path d="M 257.8947,155.2632 l 4.7770,-14.7021 l -4.7770,2.5114 l -4.7770,-2.5114 Z"/></g><g fill="rgb(255,0,0)" stroke="rgb(255,0,0)" stroke-linecap="butt" stroke-width="0.0" stroke-miterlimit="10.0" fill-opacity="1.0" stroke-opacity="1.0" stroke-linejoin="miter"><path d="M 257.8947,143.0725 l -0.0000,-0.3776 l 0.7182,-0.0000 l -0.7182,0.3776 l -0.0000,-0.3776 l -0.7182,0.0000 Z"/></g><g fill="rgb(0,0,0)" stroke="rgb(255,0,0)" stroke-linecap="butt" stroke-width="1.4363696929192158" stroke-miterlimit="10.0" fill-opacity="0.0" stroke-opacity="1.0" stroke-linejoin="miter"><path d="M 232.3839,117.0073 l -49.0472,32.6981 "/></g><g fill="rgb(255,0,0)" stroke="rgb(255,0,0)" stroke-linecap="butt" stroke-width="0.0" stroke-miterlimit="10.0" fill-opacity="1.0" stroke-opacity="1.0" stroke-linejoin="miter"></g><g fill="rgb(255,0,0)" stroke="rgb(255,0,0)" stroke-linecap="butt" stroke-width="0.0" stroke-miterlimit="10.0" fill-opacity="1.0" stroke-opacity="1.0" stroke-linejoin="miter"></g><g fill="rgb(255,0,0)" stroke="rgb(255,0,0)" stroke-linecap="butt" stroke-width="0.0" stroke-miterlimit="10.0" fill-opacity="1.0" stroke-opacity="1.0" stroke-linejoin="miter"><path d="M 172.8793,156.6770 l 14.8827,-4.1805 l -4.7394,-2.5816 l -0.5602,-5.3678 Z"/></g><g fill="rgb(255,0,0)" stroke="rgb(255,0,0)" stroke-linecap="butt" stroke-width="0.0" stroke-miterlimit="10.0" fill-opacity="1.0" stroke-opacity="1.0" stroke-linejoin="miter"><path d="M 183.0225,149.9148 l 0.3142,-0.2094 l 0.3984,0.5976 l -0.7125,-0.3881 l 0.3142,-0.2094 l -0.3984,-0.5976 Z"/></g><g fill="rgb(0,0,0)" stroke="rgb(255,0,0)" stroke-linecap="butt" stroke-width="1.4363696929192158" stroke-miterlimit="10.0" fill-opacity="0.0" stroke-opacity="1.0" stroke-linejoin="miter"><path d="M 172.8793,117.0073 l 49.0472,32.6981 "/></g><g fill="rgb(255,0,0)" stroke="rgb(255,0,0)" stroke-linecap="butt" stroke-width="0.0" stroke-miterlimit="10.0" fill-opacity="1.0" stroke-opacity="1.0" stroke-linejoin="miter"></g><g fill="rgb(255,0,0)" stroke="rgb(255,0,0)" stroke-linecap="butt" stroke-width="0.0" stroke-miterlimit="10.0" fill-opacity="1.0" stroke-opacity="1.0" stroke-linejoin="miter"></g><g fill="rgb(255,0,0)" stroke="rgb(255,0,0)" stroke-linecap="butt" stroke-width="0.0" stroke-miterlimit="10.0" fill-opacity="1.0" stroke-opacity="1.0" stroke-linejoin="miter"><path d="M 232.3839,156.6770 l -9.5831,-12.1299 l -0.5602,5.3678 l -4.7394,2.5816 Z"/></g><g fill="rgb(255,0,0)" stroke="rgb(255,0,0)" stroke-linecap="butt" stroke-width="0.0" stroke-miterlimit="10.0" fill-opacity="1.0" stroke-opacity="1.0" stroke-linejoin="miter"><path d="M 222.2406,149.9148 l -0.3142,-0.2094 l 0.3984,-0.5976 l -0.0842,0.8070 l -0.3142,-0.2094 l -0.3984,0.5976 Z"/></g><g fill="rgb(0,0,0)" stroke="rgb(255,0,0)" stroke-linecap="butt" stroke-width="1.4363696929192158" stroke-miterlimit="10.0" fill-opacity="0.0" stroke-opacity="1.0" stroke-linejoin="miter"><path d="M 121.8575,117.0073 l -49.0472,32.6981 "/></g><g fill="rgb(255,0,0)" stroke="rgb(255,0,0)" stroke-linecap="butt" stroke-width="0.0" stroke-miterlimit="10.0" fill-opacity="1.0" stroke-opacity="1.0" stroke-linejoin="miter"></g><g fill="rgb(255,0,0)" stroke="rgb(255,0,0)" stroke-linecap="butt" stroke-width="0.0" stroke-miterlimit="10.0" fill-opacity="1.0" stroke-opacity="1.0" stroke-linejoin="miter"></g><g fill="rgb(255,0,0)" stroke="rgb(255,0,0)" stroke-linecap="butt" stroke-width="0.0" stroke-miterlimit="10.0" fill-opacity="1.0" stroke-opacity="1.0" stroke-linejoin="miter"><path d="M 62.3530,156.6770 l 14.8827,-4.1805 l -4.7394,-2.5816 l -0.5602,-5.3678 Z"/></g><g fill="rgb(255,0,0)" stroke="rgb(255,0,0)" stroke-linecap="butt" stroke-width="0.0" stroke-miterlimit="10.0" fill-opacity="1.0" stroke-opacity="1.0" stroke-linejoin="miter"><path d="M 72.4962,149.9148 l 0.3142,-0.2094 l 0.3984,0.5976 l -0.7125,-0.3881 l 0.3142,-0.2094 l -0.3984,-0.5976 Z"/></g><g fill="rgb(0,0,0)" stroke="rgb(255,0,0)" stroke-linecap="butt" stroke-width="1.4363696929192158" stroke-miterlimit="10.0" fill-opacity="0.0" stroke-opacity="1.0" stroke-linejoin="miter"><path d="M 62.3530,117.0073 l 49.0472,32.6981 "/></g><g fill="rgb(255,0,0)" stroke="rgb(255,0,0)" stroke-linecap="butt" stroke-width="0.0" stroke-miterlimit="10.0" fill-opacity="1.0" stroke-opacity="1.0" stroke-linejoin="miter"></g><g fill="rgb(255,0,0)" stroke="rgb(255,0,0)" stroke-linecap="butt" stroke-width="0.0" stroke-miterlimit="10.0" fill-opacity="1.0" stroke-opacity="1.0" stroke-linejoin="miter"></g><g fill="rgb(255,0,0)" stroke="rgb(255,0,0)" stroke-linecap="butt" stroke-width="0.0" stroke-miterlimit="10.0" fill-opacity="1.0" stroke-opacity="1.0" stroke-linejoin="miter"><path d="M 121.8575,156.6770 l -9.5831,-12.1299 l -0.5602,5.3678 l -4.7394,2.5816 Z"/></g><g fill="rgb(255,0,0)" stroke="rgb(255,0,0)" stroke-linecap="butt" stroke-width="0.0" stroke-miterlimit="10.0" fill-opacity="1.0" stroke-opacity="1.0" stroke-linejoin="miter"><path d="M 111.7143,149.9148 l -0.3142,-0.2094 l 0.3984,-0.5976 l -0.0842,0.8070 l -0.3142,-0.2094 l -0.3984,0.5976 Z"/></g><g fill="rgb(0,0,0)" stroke="rgb(255,0,0)" stroke-linecap="butt" stroke-width="1.4363696929192158" stroke-miterlimit="10.0" fill-opacity="0.0" stroke-opacity="1.0" stroke-linejoin="miter"><path d="M 36.8421,118.4211 l 0.0000,24.2739 "/></g><g fill="rgb(255,0,0)" stroke="rgb(255,0,0)" stroke-linecap="butt" stroke-width="0.0" stroke-miterlimit="10.0" fill-opacity="1.0" stroke-opacity="1.0" stroke-linejoin="miter"></g><g fill="rgb(255,0,0)" stroke="rgb(255,0,0)" stroke-linecap="butt" stroke-width="0.0" stroke-miterlimit="10.0" fill-opacity="1.0" stroke-opacity="1.0" stroke-linejoin="miter"></g><g fill="rgb(255,0,0)" stroke="rgb(255,0,0)" stroke-linecap="butt" stroke-width="0.0" stroke-miterlimit="10.0" fill-opacity="1.0" stroke-opacity="1.0" stroke-linejoin="miter"><path d="M 36.8421,155.2632 l 4.7770,-14.7021 l -4.7770,2.5114 l -4.7770,-2.5114 Z"/></g><g fill="rgb(255,0,0)" stroke="rgb(255,0,0)" stroke-linecap="butt" stroke-width="0.0" stroke-miterlimit="10.0" fill-opacity="1.0" stroke-opacity="1.0" stroke-linejoin="miter"><path d="M 36.8421,143.0725 l -0.0000,-0.3776 l 0.7182,-0.0000 l -0.7182,0.3776 l -0.0000,-0.3776 l -0.7182,0.0000 Z"/></g><g fill="rgb(0,0,0)" stroke="rgb(255,0,0)" stroke-linecap="butt" stroke-width="1.4363696929192158" stroke-miterlimit="10.0" fill-opacity="0.0" stroke-opacity="1.0" stroke-linejoin="miter"><path d="M 172.8793,43.3230 l 49.0472,32.6981 "/></g><g fill="rgb(255,0,0)" stroke="rgb(255,0,0)" stroke-linecap="butt" stroke-width="0.0" stroke-miterlimit="10.0" fill-opacity="1.0" stroke-opacity="1.0" stroke-linejoin="miter"></g><g fill="rgb(255,0,0)" stroke="rgb(255,0,0)" stroke-linecap="butt" stroke-width="0.0" stroke-miterlimit="10.0" fill-opacity="1.0" stroke-opacity="1.0" stroke-linejoin="miter"></g><g fill="rgb(255,0,0)" stroke="rgb(255,0,0)" stroke-linecap="butt" stroke-width="0.0" stroke-miterlimit="10.0" fill-opacity="1.0" stroke-opacity="1.0" stroke-linejoin="miter"><path d="M 232.3839,82.9927 l -9.5831,-12.1299 l -0.5602,5.3678 l -4.7394,2.5816 Z"/></g><g fill="rgb(255,0,0)" stroke="rgb(255,0,0)" stroke-linecap="butt" stroke-width="0.0" stroke-miterlimit="10.0" fill-opacity="1.0" stroke-opacity="1.0" stroke-linejoin="miter"><path d="M 222.2406,76.2306 l -0.3142,-0.2094 l 0.3984,-0.5976 l -0.0842,0.8070 l -0.3142,-0.2094 l -0.3984,0.5976 Z"/></g><g fill="rgb(0,0,0)" stroke="rgb(255,0,0)" stroke-linecap="butt" stroke-width="1.4363696929192158" stroke-miterlimit="10.0" fill-opacity="0.0" stroke-opacity="1.0" stroke-linejoin="miter"><path d="M 147.3684,44.7368 l 0.0000,24.2739 "/></g><g fill="rgb(255,0,0)" stroke="rgb(255,0,0)" stroke-linecap="butt" stroke-width="0.0" stroke-miterlimit="10.0" fill-opacity="1.0" stroke-opacity="1.0" stroke-linejoin="miter"></g><g fill="rgb(255,0,0)" stroke="rgb(255,0,0)" stroke-linecap="butt" stroke-width="0.0" stroke-miterlimit="10.0" fill-opacity="1.0" stroke-opacity="1.0" stroke-linejoin="miter"></g><g fill="rgb(255,0,0)" stroke="rgb(255,0,0)" stroke-linecap="butt" stroke-width="0.0" stroke-miterlimit="10.0" fill-opacity="1.0" stroke-opacity="1.0" stroke-linejoin="miter"><path d="M 147.3684,81.5789 l 4.7770,-14.7021 l -4.7770,2.5114 l -4.7770,-2.5114 Z"/></g><g fill="rgb(255,0,0)" stroke="rgb(255,0,0)" stroke-linecap="butt" stroke-width="0.0" stroke-miterlimit="10.0" fill-opacity="1.0" stroke-opacity="1.0" stroke-linejoin="miter"><path d="M 147.3684,69.3883 l -0.0000,-0.3776 l 0.7182,-0.0000 l -0.7182,0.3776 l -0.0000,-0.3776 l -0.7182,0.0000 Z"/></g><g fill="rgb(0,0,0)" stroke="rgb(255,0,0)" stroke-linecap="butt" stroke-width="1.4363696929192158" stroke-miterlimit="10.0" fill-opacity="0.0" stroke-opacity="1.0" stroke-linejoin="miter"><path d="M 121.8575,43.3230 l -49.0472,32.6981 "/></g><g fill="rgb(255,0,0)" stroke="rgb(255,0,0)" stroke-linecap="butt" stroke-width="0.0" stroke-miterlimit="10.0" fill-opacity="1.0" stroke-opacity="1.0" stroke-linejoin="miter"></g><g fill="rgb(255,0,0)" stroke="rgb(255,0,0)" stroke-linecap="butt" stroke-width="0.0" stroke-miterlimit="10.0" fill-opacity="1.0" stroke-opacity="1.0" stroke-linejoin="miter"></g><g fill="rgb(255,0,0)" stroke="rgb(255,0,0)" stroke-linecap="butt" stroke-width="0.0" stroke-miterlimit="10.0" fill-opacity="1.0" stroke-opacity="1.0" stroke-linejoin="miter"><path d="M 62.3530,82.9927 l 14.8827,-4.1805 l -4.7394,-2.5816 l -0.5602,-5.3678 Z"/></g><g fill="rgb(255,0,0)" stroke="rgb(255,0,0)" stroke-linecap="butt" stroke-width="0.0" stroke-miterlimit="10.0" fill-opacity="1.0" stroke-opacity="1.0" stroke-linejoin="miter"><path d="M 72.4962,76.2306 l 0.3142,-0.2094 l 0.3984,0.5976 l -0.7125,-0.3881 l 0.3142,-0.2094 l -0.3984,-0.5976 Z"/></g></svg>