<?xml version="1.0" encoding="UTF-8"?>
<!DOCTYPE svg PUBLIC "-//W3C//DTD SVG 1.1//EN"
    "http://www.w3.org/Graphics/SVG/1.1/DTD/svg11.dtd"><svg xmlns="http://www.w3.org/2000/svg" width="200" xmlns:xlink="http://www.w3.org/1999/xlink" height="200" version="1.11.1"><line stroke="black" stroke-width="1" y1="199" x1="1" y2="199" x2="199"/><line stroke="black" stroke-width="1" y1="199" x1="1" y2="1" x2="1"/><line stroke="black" stroke-width="1" y1="199" x1="199" y2="1" x2="199"/><line stroke="black" stroke-width="1" y1="1" x1="1" y2="1" x2="199"/><line stroke="black" stroke-width="1" y1="149" x1="143" y2="124" x2="144"/><line stroke="black" stroke-width="1" y1="112" x1="135" y2="153" x2="140"/><line stroke="black" stroke-width="1" y1="167" x1="62" y2="129" x2="80"/><line stroke="black" stroke-width="1" y1="135" x1="82" y2="155" x2="76"/><line stroke="black" stroke-width="1" y1="138" x1="159" y2="82" x2="167"/><line stroke="black" stroke-width="1" y1="115" x1="34" y2="92" x2="37"/><line stroke="black" stroke-width="1" y1="63" x1="41" y2="118" x2="33"/><line stroke="black" stroke-width="1" y1="69" x1="40" y2="92" x2="37"/><line stroke="black" stroke-width="1" y1="74" x1="46" y2="92" x2="37"/><line stroke="black" stroke-width="1" y1="171" x1="69" y2="155" x2="76"/><line stroke="black" stroke-width="1" y1="174" x1="79" y2="155" x2="76"/><line stroke="black" stroke-width="1" y1="110" x1="142" y2="124" x2="144"/><line stroke="black" stroke-width="1" y1="103" x1="147" y2="124" x2="144"/><line stroke="black" stroke-width="1" y1="164" x1="38" y2="161" x2="37"/><line stroke="black" stroke-width="1" y1="115" x1="34" y2="118" x2="33"/><line stroke="black" stroke-width="1" y1="163" x1="38" y2="115" x2="34"/><line stroke="black" stroke-width="1" y1="136" x1="33" y2="118" x2="33"/><line stroke="black" stroke-width="1" y1="36" x1="162" y2="39" x2="163"/><line stroke="black" stroke-width="1" y1="65" x1="167" y2="82" x2="167"/><line stroke="black" stroke-width="1" y1="98" x1="106" y2="96" x2="101"/><line stroke="black" stroke-width="1" y1="129" x1="80" y2="135" x2="82"/><line stroke="black" stroke-width="1" y1="106" x1="82" y2="129" x2="80"/><line stroke="black" stroke-width="1" y1="100" x1="106" y2="135" x2="82"/><line stroke="black" stroke-width="1" y1="175" x1="146" y2="176" x2="143"/><line stroke="black" stroke-width="1" y1="149" x1="143" y2="153" x2="140"/><line stroke="black" stroke-width="1" y1="173" x1="147" y2="149" x2="143"/><line stroke="black" stroke-width="1" y1="172" x1="133" y2="153" x2="140"/><line stroke="black" stroke-width="1" y1="25" x1="54" y2="24" x2="57"/><line stroke="black" stroke-width="1" y1="69" x1="42" y2="74" x2="46"/><line stroke="black" stroke-width="1" y1="70" x1="53" y2="74" x2="46"/><line stroke="black" stroke-width="1" y1="106" x1="144" y2="103" x2="147"/><line stroke="black" stroke-width="1" y1="88" x1="151" y2="103" x2="147"/><line stroke="black" stroke-width="1" y1="173" x1="71" y2="174" x2="79"/><line stroke="black" stroke-width="1" y1="182" x1="86" y2="174" x2="79"/><line stroke="black" stroke-width="1" y1="63" x1="57" y2="84" x2="80"/><line stroke="black" stroke-width="1" y1="91" x1="76" y2="70" x2="53"/><line stroke="black" stroke-width="1" y1="80" x1="150" y2="57" x2="161"/><line stroke="black" stroke-width="1" y1="86" x1="151" y2="65" x2="163"/><line stroke="black" stroke-width="1" y1="185" x1="85" y2="183" x2="119"/><line stroke="black" stroke-width="1" y1="180" x1="120" y2="182" x2="86"/><line stroke="black" stroke-width="1" y1="15" x1="115" y2="17" x2="81"/><line stroke="black" stroke-width="1" y1="183" x1="119" y2="180" x2="120"/><line stroke="black" stroke-width="1" y1="176" x1="143" y2="172" x2="133"/><line stroke="black" stroke-width="1" y1="183" x1="119" y2="176" x2="143"/><line stroke="black" stroke-width="1" y1="180" x1="120" y2="172" x2="133"/><line stroke="black" stroke-width="1" y1="17" x1="81" y2="24" x2="57"/><line stroke="black" stroke-width="1" y1="84" x1="80" y2="91" x2="76"/><line stroke="black" stroke-width="1" y1="96" x1="101" y2="106" x2="82"/><line stroke="black" stroke-width="1" y1="84" x1="80" y2="96" x2="101"/><line stroke="black" stroke-width="1" y1="91" x1="76" y2="106" x2="82"/><line stroke="black" stroke-width="1" y1="161" x1="37" y2="136" x2="33"/><line stroke="black" stroke-width="1" y1="57" x1="161" y2="65" x2="163"/><line stroke="black" stroke-width="1" y1="39" x1="163" y2="65" x2="167"/><line stroke="black" stroke-width="1" y1="57" x1="161" y2="39" x2="163"/><line stroke="black" stroke-width="1" y1="65" x1="163" y2="65" x2="167"/><line stroke="black" stroke-width="1" y1="164" x1="38" y2="163" x2="38"/><line stroke="black" stroke-width="1" y1="179" x1="65" y2="164" x2="38"/><line stroke="black" stroke-width="1" y1="171" x1="67" y2="167" x2="62"/><line stroke="black" stroke-width="1" y1="163" x1="38" y2="167" x2="62"/><line stroke="black" stroke-width="1" y1="21" x1="135" y2="36" x2="162"/><line stroke="black" stroke-width="1" y1="98" x1="106" y2="100" x2="106"/><line stroke="black" stroke-width="1" y1="89" x1="135" y2="98" x2="106"/><line stroke="black" stroke-width="1" y1="110" x1="141" y2="112" x2="135"/><line stroke="black" stroke-width="1" y1="100" x1="106" y2="112" x2="135"/><line stroke="black" stroke-width="1" y1="175" x1="146" y2="173" x2="147"/><line stroke="black" stroke-width="1" y1="173" x1="147" y2="138" x2="159"/><line stroke="black" stroke-width="1" y1="25" x1="54" y2="28" x2="53"/><line stroke="black" stroke-width="1" y1="49" x1="52" y2="25" x2="54"/><line stroke="black" stroke-width="1" y1="67" x1="41" y2="63" x2="41"/><line stroke="black" stroke-width="1" y1="28" x1="53" y2="63" x2="41"/><line stroke="black" stroke-width="1" y1="63" x1="57" y2="70" x2="53"/><line stroke="black" stroke-width="1" y1="65" x1="50" y2="70" x2="53"/><line stroke="black" stroke-width="1" y1="59" x1="54" y2="63" x2="57"/><line stroke="black" stroke-width="1" y1="80" x1="150" y2="86" x2="151"/><line stroke="black" stroke-width="1" y1="91" x1="147" y2="88" x2="151"/><line stroke="black" stroke-width="1" y1="84" x1="145" y2="80" x2="150"/><line stroke="black" stroke-width="1" y1="86" x1="151" y2="88" x2="151"/><line stroke="black" stroke-width="1" y1="185" x1="85" y2="182" x2="86"/><line stroke="black" stroke-width="1" y1="181" x1="78" y2="182" x2="86"/><line stroke="black" stroke-width="1" y1="184" x1="78" y2="185" x2="85"/><line stroke="black" stroke-width="1" y1="16" x1="122" y2="15" x2="115"/><line stroke="black" stroke-width="1" y1="181" x1="78" y2="184" x2="78"/><line stroke="black" stroke-width="1" y1="179" x1="65" y2="171" x2="67"/><line stroke="black" stroke-width="1" y1="181" x1="78" y2="173" x2="71"/><line stroke="black" stroke-width="1" y1="184" x1="78" y2="179" x2="65"/><line stroke="black" stroke-width="1" y1="173" x1="71" y2="171" x2="69"/><line stroke="black" stroke-width="1" y1="171" x1="67" y2="171" x2="69"/><line stroke="black" stroke-width="1" y1="16" x1="122" y2="21" x2="135"/><line stroke="black" stroke-width="1" y1="65" x1="50" y2="59" x2="54"/><line stroke="black" stroke-width="1" y1="49" x1="52" y2="67" x2="41"/><line stroke="black" stroke-width="1" y1="65" x1="50" y2="69" x2="42"/><line stroke="black" stroke-width="1" y1="59" x1="54" y2="49" x2="52"/><line stroke="black" stroke-width="1" y1="69" x1="42" y2="69" x2="40"/><line stroke="black" stroke-width="1" y1="67" x1="41" y2="69" x2="40"/><line stroke="black" stroke-width="1" y1="91" x1="147" y2="84" x2="145"/><line stroke="black" stroke-width="1" y1="89" x1="135" y2="110" x2="141"/><line stroke="black" stroke-width="1" y1="91" x1="147" y2="106" x2="144"/><line stroke="black" stroke-width="1" y1="84" x1="145" y2="89" x2="135"/><line stroke="black" stroke-width="1" y1="106" x1="144" y2="110" x2="142"/><line stroke="black" stroke-width="1" y1="110" x1="141" y2="110" x2="142"/></svg>