<?xml version="1.0" encoding="UTF-8"?>
<!DOCTYPE svg PUBLIC "-//W3C//DTD SVG 1.1//EN"
    "http://www.w3.org/Graphics/SVG/1.1/DTD/svg11.dtd"><svg xmlns="http://www.w3.org/2000/svg" width="200" xmlns:xlink="http://www.w3.org/1999/xlink" height="200" version="1.11.1"><line stroke="black" stroke-width="1" y1="199" x1="1" y2="199" x2="199"/><line stroke="black" stroke-width="1" y1="199" x1="1" y2="1" x2="1"/><line stroke="black" stroke-width="1" y1="199" x1="199" y2="1" x2="199"/><line stroke="black" stroke-width="1" y1="1" x1="1" y2="1" x2="199"/><line stroke="black" stroke-width="1" y1="112" x1="21" y2="85" x2="31"/><line stroke="black" stroke-width="1" y1="49" x1="70" y2="85" x2="31"/><line stroke="black" stroke-width="1" y1="25" x1="115" y2="49" x2="70"/><line stroke="black" stroke-width="1" y1="27" x1="138" y2="25" x2="115"/><line stroke="black" stroke-width="1" y1="54" x1="127" y2="27" x2="138"/><line stroke="black" stroke-width="1" y1="90" x1="89" y2="54" x2="127"/><line stroke="black" stroke-width="1" y1="114" x1="44" y2="90" x2="89"/><line stroke="black" stroke-width="1" y1="114" x1="44" y2="112" x2="21"/><line stroke="black" stroke-width="1" y1="41" x1="158" y2="27" x2="138"/><line stroke="black" stroke-width="1" y1="21" x1="149" y2="27" x2="138"/><line stroke="black" stroke-width="1" y1="83" x1="125" y2="54" x2="127"/><line stroke="black" stroke-width="1" y1="41" x1="158" y2="54" x2="127"/><line stroke="black" stroke-width="1" y1="123" x1="69" y2="90" x2="89"/><line stroke="black" stroke-width="1" y1="83" x1="125" y2="90" x2="89"/><line stroke="black" stroke-width="1" y1="137" x1="24" y2="114" x2="44"/><line stroke="black" stroke-width="1" y1="123" x1="69" y2="114" x2="44"/><line stroke="black" stroke-width="1" y1="137" x1="24" y2="112" x2="21"/><line stroke="black" stroke-width="1" y1="118" x1="15" y2="112" x2="21"/><line stroke="black" stroke-dasharray="3, 3" stroke-width="1" y1="76" x1="48" y2="85" x2="31"/><line stroke="black" stroke-width="1" y1="118" x1="15" y2="85" x2="31"/><line stroke="black" stroke-dasharray="3, 3" stroke-width="1" y1="36" x1="104" y2="49" x2="70"/><line stroke="black" stroke-dasharray="3, 3" stroke-width="1" y1="76" x1="48" y2="49" x2="70"/><line stroke="black" stroke-width="1" y1="21" x1="149" y2="25" x2="115"/><line stroke="black" stroke-dasharray="3, 3" stroke-width="1" y1="36" x1="104" y2="25" x2="115"/><line stroke="black" stroke-width="1" y1="159" x1="17" y2="137" x2="24"/><line stroke="black" stroke-width="1" y1="159" x1="17" y2="118" x2="15"/><line stroke="black" stroke-dasharray="3, 3" stroke-width="1" y1="143" x1="18" y2="118" x2="15"/><line stroke="black" stroke-dasharray="3, 3" stroke-width="1" y1="120" x1="32" y2="118" x2="15"/><line stroke="black" stroke-dasharray="3, 3" stroke-width="1" y1="120" x1="32" y2="76" x2="48"/><line stroke="black" stroke-dasharray="3, 3" stroke-width="1" y1="94" x1="57" y2="76" x2="48"/><line stroke="black" stroke-dasharray="3, 3" stroke-width="1" y1="69" x1="88" y2="76" x2="48"/><line stroke="black" stroke-dasharray="3, 3" stroke-width="1" y1="69" x1="88" y2="36" x2="104"/><line stroke="black" stroke-dasharray="3, 3" stroke-width="1" y1="48" x1="121" y2="36" x2="104"/><line stroke="black" stroke-dasharray="3, 3" stroke-width="1" y1="35" x1="151" y2="36" x2="104"/><line stroke="black" stroke-dasharray="3, 3" stroke-width="1" y1="35" x1="151" y2="21" x2="149"/><line stroke="black" stroke-width="1" y1="31" x1="174" y2="21" x2="149"/><line stroke="black" stroke-width="1" y1="38" x1="185" y2="21" x2="149"/><line stroke="black" stroke-width="1" y1="38" x1="185" y2="41" x2="158"/><line stroke="black" stroke-width="1" y1="53" x1="184" y2="41" x2="158"/><line stroke="black" stroke-width="1" y1="76" x1="170" y2="41" x2="158"/><line stroke="black" stroke-width="1" y1="76" x1="170" y2="83" x2="125"/><line stroke="black" stroke-width="1" y1="102" x1="145" y2="83" x2="125"/><line stroke="black" stroke-width="1" y1="128" x1="114" y2="83" x2="125"/><line stroke="black" stroke-width="1" y1="128" x1="114" y2="123" x2="69"/><line stroke="black" stroke-width="1" y1="149" x1="81" y2="123" x2="69"/><line stroke="black" stroke-width="1" y1="162" x1="51" y2="123" x2="69"/><line stroke="black" stroke-width="1" y1="165" x1="28" y2="137" x2="24"/><line stroke="black" stroke-width="1" y1="162" x1="51" y2="137" x2="24"/><line stroke="black" stroke-dasharray="3, 3" stroke-width="1" y1="164" x1="92" y2="179" x2="162"/><line stroke="black" stroke-dasharray="3, 3" stroke-width="1" y1="140" x1="112" y2="179" x2="162"/><line stroke="black" stroke-dasharray="3, 3" stroke-width="1" y1="117" x1="144" y2="179" x2="162"/><line stroke="black" stroke-dasharray="3, 3" stroke-width="1" y1="109" x1="170" y2="179" x2="162"/><line stroke="black" stroke-width="1" y1="119" x1="175" y2="179" x2="162"/><line stroke="black" stroke-width="1" y1="144" x1="156" y2="179" x2="162"/><line stroke="black" stroke-width="1" y1="167" x1="124" y2="179" x2="162"/><line stroke="black" stroke-width="1" y1="175" x1="98" y2="179" x2="162"/><line stroke="black" stroke-dasharray="3, 3" stroke-width="1" y1="164" x1="92" y2="120" x2="32"/><line stroke="black" stroke-dasharray="3, 3" stroke-width="1" y1="143" x1="18" y2="120" x2="32"/><line stroke="black" stroke-dasharray="3, 3" stroke-width="1" y1="164" x1="92" y2="143" x2="18"/><line stroke="black" stroke-dasharray="3, 3" stroke-width="1" y1="164" x1="92" y2="159" x2="17"/><line stroke="black" stroke-dasharray="3, 3" stroke-width="1" y1="143" x1="18" y2="159" x2="17"/><line stroke="black" stroke-dasharray="3, 3" stroke-width="1" y1="159" x1="17" y2="175" x2="98"/><line stroke="black" stroke-width="1" y1="165" x1="28" y2="159" x2="17"/><line stroke="black" stroke-width="1" y1="175" x1="98" y2="165" x2="28"/><line stroke="black" stroke-width="1" y1="175" x1="98" y2="162" x2="51"/><line stroke="black" stroke-width="1" y1="165" x1="28" y2="162" x2="51"/><line stroke="black" stroke-dasharray="3, 3" stroke-width="1" y1="140" x1="112" y2="69" x2="88"/><line stroke="black" stroke-dasharray="3, 3" stroke-width="1" y1="94" x1="57" y2="69" x2="88"/><line stroke="black" stroke-dasharray="3, 3" stroke-width="1" y1="140" x1="112" y2="94" x2="57"/><line stroke="black" stroke-dasharray="3, 3" stroke-width="1" y1="120" x1="32" y2="140" x2="112"/><line stroke="black" stroke-dasharray="3, 3" stroke-width="1" y1="94" x1="57" y2="120" x2="32"/><line stroke="black" stroke-width="1" y1="162" x1="51" y2="167" x2="124"/><line stroke="black" stroke-width="1" y1="149" x1="81" y2="162" x2="51"/><line stroke="black" stroke-width="1" y1="167" x1="124" y2="149" x2="81"/><line stroke="black" stroke-width="1" y1="167" x1="124" y2="128" x2="114"/><line stroke="black" stroke-width="1" y1="149" x1="81" y2="128" x2="114"/><line stroke="black" stroke-width="1" y1="144" x1="156" y2="76" x2="170"/><line stroke="black" stroke-width="1" y1="102" x1="145" y2="76" x2="170"/><line stroke="black" stroke-width="1" y1="144" x1="156" y2="102" x2="145"/><line stroke="black" stroke-width="1" y1="128" x1="114" y2="144" x2="156"/><line stroke="black" stroke-width="1" y1="102" x1="145" y2="128" x2="114"/><line stroke="black" stroke-width="1" y1="76" x1="170" y2="119" x2="175"/><line stroke="black" stroke-width="1" y1="53" x1="184" y2="76" x2="170"/><line stroke="black" stroke-width="1" y1="119" x1="175" y2="53" x2="184"/><line stroke="black" stroke-dasharray="3, 3" stroke-width="1" y1="119" x1="175" y2="38" x2="185"/><line stroke="black" stroke-width="1" y1="53" x1="184" y2="38" x2="185"/><line stroke="black" stroke-dasharray="3, 3" stroke-width="1" y1="38" x1="185" y2="109" x2="170"/><line stroke="black" stroke-width="1" y1="31" x1="174" y2="38" x2="185"/><line stroke="black" stroke-dasharray="3, 3" stroke-width="1" y1="109" x1="170" y2="31" x2="174"/><line stroke="black" stroke-dasharray="3, 3" stroke-width="1" y1="109" x1="170" y2="35" x2="151"/><line stroke="black" stroke-dasharray="3, 3" stroke-width="1" y1="31" x1="174" y2="35" x2="151"/><line stroke="black" stroke-dasharray="3, 3" stroke-width="1" y1="35" x1="151" y2="117" x2="144"/><line stroke="black" stroke-dasharray="3, 3" stroke-width="1" y1="48" x1="121" y2="35" x2="151"/><line stroke="black" stroke-dasharray="3, 3" stroke-width="1" y1="117" x1="144" y2="48" x2="121"/><line stroke="black" stroke-dasharray="3, 3" stroke-width="1" y1="69" x1="88" y2="117" x2="144"/><line stroke="black" stroke-dasharray="3, 3" stroke-width="1" y1="48" x1="121" y2="69" x2="88"/></svg>