<?xml version="1.0" encoding="UTF-8"?>
<!DOCTYPE svg PUBLIC "-//W3C//DTD SVG 1.1//EN"
    "http://www.w3.org/Graphics/SVG/1.1/DTD/svg11.dtd"><svg xmlns="http://www.w3.org/2000/svg" width="200" xmlns:xlink="http://www.w3.org/1999/xlink" height="200" version="1.11.1"><rect fill="white" width="100%" height="100%"/><line stroke="black" stroke-width="1" y1="199" x1="1" y2="199" x2="199"/><line stroke="black" stroke-width="1" y1="199" x1="1" y2="1" x2="1"/><line stroke="black" stroke-width="1" y1="199" x1="199" y2="1" x2="199"/><line stroke="black" stroke-width="1" y1="1" x1="1" y2="1" x2="199"/><line stroke="black" stroke-width="1" y1="100" x1="25" y2="74" x2="33"/><line stroke="black" stroke-width="1" y1="43" x1="71" y2="74" x2="33"/><line stroke="black" stroke-width="1" y1="26" x1="117" y2="43" x2="71"/><line stroke="black" stroke-width="1" y1="33" x1="143" y2="26" x2="117"/><line stroke="black" stroke-width="1" y1="59" x1="135" y2="33" x2="143"/><line stroke="black" stroke-width="1" y1="89" x1="97" y2="59" x2="135"/><line stroke="black" stroke-width="1" y1="107" x1="51" y2="89" x2="97"/><line stroke="black" stroke-width="1" y1="107" x1="51" y2="100" x2="25"/><line stroke="black" stroke-width="1" y1="48" x1="163" y2="33" x2="143"/><line stroke="black" stroke-width="1" y1="26" x1="151" y2="33" x2="143"/><line stroke="black" stroke-width="1" y1="86" x1="132" y2="59" x2="135"/><line stroke="black" stroke-width="1" y1="48" x1="163" y2="59" x2="135"/><line stroke="black" stroke-width="1" y1="118" x1="76" y2="89" x2="97"/><line stroke="black" stroke-width="1" y1="86" x1="132" y2="89" x2="97"/><line stroke="black" stroke-width="1" y1="125" x1="28" y2="107" x2="51"/><line stroke="black" stroke-width="1" y1="118" x1="76" y2="107" x2="51"/><line stroke="black" stroke-width="1" y1="125" x1="28" y2="100" x2="25"/><line stroke="black" stroke-width="1" y1="104" x1="16" y2="100" x2="25"/><line stroke="black" stroke-width="1" y1="104" x1="16" y2="74" x2="33"/><line stroke="black" stroke-width="1" y1="26" x1="151" y2="26" x2="117"/><line stroke="black" stroke-width="1" y1="143" x1="16" y2="125" x2="28"/><line stroke="black" stroke-width="1" y1="143" x1="16" y2="104" x2="16"/><line stroke="black" stroke-width="1" y1="126" x1="15" y2="104" x2="16"/><line stroke="black" stroke-width="1" y1="37" x1="171" y2="26" x2="151"/><line stroke="black" stroke-width="1" y1="46" x1="184" y2="26" x2="151"/><line stroke="black" stroke-width="1" y1="46" x1="184" y2="48" x2="163"/><line stroke="black" stroke-width="1" y1="62" x1="185" y2="48" x2="163"/><line stroke="black" stroke-width="1" y1="83" x1="173" y2="48" x2="163"/><line stroke="black" stroke-width="1" y1="83" x1="173" y2="86" x2="132"/><line stroke="black" stroke-width="1" y1="106" x1="149" y2="86" x2="132"/><line stroke="black" stroke-width="1" y1="127" x1="118" y2="86" x2="132"/><line stroke="black" stroke-width="1" y1="127" x1="118" y2="118" x2="76"/><line stroke="black" stroke-width="1" y1="143" x1="85" y2="118" x2="76"/><line stroke="black" stroke-width="1" y1="152" x1="53" y2="118" x2="76"/><line stroke="black" stroke-width="1" y1="152" x1="29" y2="125" x2="28"/><line stroke="black" stroke-width="1" y1="152" x1="53" y2="125" x2="28"/><line stroke="black" stroke-width="1" y1="121" x1="167" y2="174" x2="146"/><line stroke="black" stroke-width="1" y1="143" x1="149" y2="174" x2="146"/><line stroke="black" stroke-width="1" y1="162" x1="117" y2="174" x2="146"/><line stroke="black" stroke-width="1" y1="166" x1="90" y2="174" x2="146"/><line stroke="black" stroke-width="1" y1="126" x1="15" y2="143" x2="16"/><line stroke="black" stroke-width="1" y1="152" x1="29" y2="143" x2="16"/><line stroke="black" stroke-width="1" y1="166" x1="90" y2="152" x2="29"/><line stroke="black" stroke-width="1" y1="166" x1="90" y2="152" x2="53"/><line stroke="black" stroke-width="1" y1="152" x1="29" y2="152" x2="53"/><line stroke="black" stroke-width="1" y1="152" x1="53" y2="162" x2="117"/><line stroke="black" stroke-width="1" y1="143" x1="85" y2="152" x2="53"/><line stroke="black" stroke-width="1" y1="162" x1="117" y2="143" x2="85"/><line stroke="black" stroke-width="1" y1="162" x1="117" y2="127" x2="118"/><line stroke="black" stroke-width="1" y1="143" x1="85" y2="127" x2="118"/><line stroke="black" stroke-width="1" y1="143" x1="149" y2="83" x2="173"/><line stroke="black" stroke-width="1" y1="106" x1="149" y2="83" x2="173"/><line stroke="black" stroke-width="1" y1="143" x1="149" y2="106" x2="149"/><line stroke="black" stroke-width="1" y1="127" x1="118" y2="143" x2="149"/><line stroke="black" stroke-width="1" y1="106" x1="149" y2="127" x2="118"/><line stroke="black" stroke-width="1" y1="83" x1="173" y2="121" x2="167"/><line stroke="black" stroke-width="1" y1="62" x1="185" y2="83" x2="173"/><line stroke="black" stroke-width="1" y1="121" x1="167" y2="62" x2="185"/><line stroke="black" stroke-width="1" y1="62" x1="185" y2="46" x2="184"/><line stroke="black" stroke-width="1" y1="37" x1="171" y2="46" x2="184"/></svg>