<?xml version="1.0" encoding="UTF-8"?>
<!DOCTYPE svg PUBLIC "-//W3C//DTD SVG 1.1//EN"
    "http://www.w3.org/Graphics/SVG/1.1/DTD/svg11.dtd">
    <svg xmlns="http://www.w3.org/2000/svg" width="200" xmlns:xlink="http://www.w3.org/1999/xlink" height="200" version="1.11.1">
    <line stroke="black" stroke-width="1" y1="199" x1="1" y2="199" x2="199"/><line stroke="black" stroke-width="1" y1="199" x1="1" y2="1" x2="1"/><line stroke="black" stroke-width="1" y1="199" x1="199" y2="1" x2="199"/><line stroke="black" stroke-width="1" y1="1" x1="1" y2="1" x2="199"/><line stroke="black" stroke-width="1" y1="139" x1="15" y2="177" x2="115"/><line stroke="black" stroke-dasharray="3, 3" stroke-width="1" y1="177" x1="115" y2="177" x2="115"/><line stroke="black" stroke-width="1" y1="147" x1="147" y2="177" x2="115"/><line stroke="black" stroke-dasharray="3, 3" stroke-width="1" y1="61" x1="185" y2="177" x2="115"/><line stroke="black" stroke-dasharray="3, 3" stroke-width="1" y1="53" x1="53" y2="177" x2="115"/><line stroke="black" stroke-width="1" y1="147" x1="147" y2="147" x2="147"/><line stroke="black" stroke-width="1" y1="139" x1="15" y2="139" x2="15"/><line stroke="black" stroke-width="1" y1="147" x1="147" y2="139" x2="15"/><line stroke="black" stroke-width="1" y1="23" x1="85" y2="147" x2="147"/><line stroke="black" stroke-width="1" y1="61" x1="185" y2="61" x2="185"/><line stroke="black" stroke-width="1" y1="147" x1="147" y2="61" x2="185"/><line stroke="black" stroke-width="1" y1="23" x1="85" y2="23" x2="85"/><line stroke="black" stroke-width="1" y1="23" x1="85" y2="139" x2="15"/><line stroke="black" stroke-width="1" y1="53" x1="53" y2="53" x2="53"/><line stroke="black" stroke-width="1" y1="139" x1="15" y2="53" x2="53"/><line stroke="black" stroke-width="1" y1="23" x1="85" y2="53" x2="53"/><line stroke="black" stroke-width="1" y1="23" x1="85" y2="61" x2="185"/><line stroke="black" stroke-dasharray="3, 3" stroke-width="1" y1="53" x1="53" y2="61" x2="185"/></svg>